<?xml version="1.0" encoding="UTF-8" standalone="no"?>
<!-- Created with Inkscape (http://www.inkscape.org/) -->

<svg
   xmlns:dc="http://purl.org/dc/elements/1.1/"
   xmlns:cc="http://creativecommons.org/ns#"
   xmlns:rdf="http://www.w3.org/1999/02/22-rdf-syntax-ns#"
   xmlns:svg="http://www.w3.org/2000/svg"
   xmlns="http://www.w3.org/2000/svg"
   xmlns:sodipodi="http://sodipodi.sourceforge.net/DTD/sodipodi-0.dtd"
   xmlns:inkscape="http://www.inkscape.org/namespaces/inkscape"
   id="svg2"
   version="1.1"
   inkscape:version="0.91 r13725"
   width="448.32031"
   height="78.632812"
   xml:space="preserve"
   sodipodi:docname="opentidalfarm_logo.svg"><metadata
     id="metadata8"><rdf:RDF><cc:Work
         rdf:about=""><dc:format>image/svg+xml</dc:format><dc:type
           rdf:resource="http://purl.org/dc/dcmitype/StillImage" /><dc:title></dc:title></cc:Work></rdf:RDF></metadata><defs
     id="defs6"><clipPath
       clipPathUnits="userSpaceOnUse"
       id="clipPath18"><path
         d="m 0,3.08984 3310,0 0,440 -3310,0 0,-440 z"
         id="path20"
         inkscape:connector-curvature="0" /></clipPath></defs><sodipodi:namedview
     pagecolor="#ffffff"
     bordercolor="#666666"
     borderopacity="1"
     objecttolerance="10"
     gridtolerance="10"
     guidetolerance="10"
     inkscape:pageopacity="0"
     inkscape:pageshadow="2"
     inkscape:window-width="1916"
     inkscape:window-height="1041"
     id="namedview4"
     showgrid="false"
     fit-margin-top="0"
     fit-margin-left="0"
     fit-margin-right="0"
     fit-margin-bottom="0"
     inkscape:zoom="2.6865785"
     inkscape:cx="184.44073"
     inkscape:cy="24.798838"
     inkscape:window-x="1920"
     inkscape:window-y="18"
     inkscape:window-maximized="0"
     inkscape:current-layer="g10" /><g
     id="g10"
     inkscape:groupmode="layer"
     inkscape:label="ink_ext_XXXXXX"
     transform="matrix(1.25,0,0,-1.25,-24.101562,94.21875)"><rect
       style="fill:none;fill-opacity:1;stroke:#000000;stroke-width:0;stroke-miterlimit:4;stroke-opacity:1;stroke-dasharray:none"
       id="rect3005"
       width="358.54025"
       height="62.830845"
       x="19.338148"
       y="-75.337463"
       transform="scale(1,-1)"
       rx="1.4312727" /><g
       id="g12"
       transform="matrix(0.1,0,0,0.1,36.951084,21.288642)"><g
         id="g14"><g
           id="g16"
           clip-path="url(#clipPath18)"><path
             d="m 2286.17,430.828 188.44,0 0,-37.5 -144.06,0 0,-96.566 130,0 0,-37.34 -130,0 0,-156.723 -44.38,0 0,328.129 z m 326.99,-204.379 c -32.61,0 -55.23,-3.75 -67.81,-11.25 -12.62,-7.5 -18.9,-20.269 -18.9,-38.277 0,-14.301 4.68,-25.621 14.06,-34.063 9.45,-8.437 22.34,-12.66 38.59,-12.66 22.38,0 40.35,7.891 53.91,23.75 13.63,15.942 20.47,37.071 20.47,63.442 l 0,9.058 -40.32,0 z m 80.63,16.723 0,-140.473 -40.31,0 0,37.352 c -9.3,-14.93 -20.78,-25.942 -34.53,-33.129 -13.75,-7.0704 -30.63,-10.6212 -50.63,-10.6212 -25.23,0 -45.27,7.0702 -60.16,21.2502 -14.8,14.14 -22.18,33.039 -22.18,56.711 0,27.699 9.25,48.597 27.81,62.66 18.51,14.058 46.17,21.09 82.97,21.09 l 56.72,0 0,4.066 c 0,18.512 -6.18,32.891 -18.44,43.121 -12.19,10.199 -29.38,15.313 -51.56,15.313 -14.07,0 -27.78,-1.711 -41.1,-5.153 -13.36,-3.359 -26.17,-8.398 -38.43,-15.16 l 0,37.352 c 14.76,5.699 29.14,10 43.12,12.808 13.95,2.891 27.5,4.371 40.63,4.371 35.62,0 62.18,-9.218 79.68,-27.652 17.58,-18.437 26.41,-46.406 26.41,-83.906 z m 224.92,67.808 c -4.61,2.579 -9.53,4.532 -14.84,5.782 -5.32,1.25 -11.21,1.879 -17.66,1.879 -22.81,0 -40.39,-7.461 -52.66,-22.34 -12.18,-14.813 -18.28,-36.102 -18.28,-63.91 l 0,-129.692 -40.62,0 0,246.102 40.62,0 0,-38.289 c 8.44,15 19.46,26.097 33.13,33.289 13.63,7.258 30.19,10.929 49.69,10.929 2.81,0 5.86,-0.23 9.21,-0.621 3.32,-0.308 7.08,-0.859 11.25,-1.558 l 0.16,-41.571 z m 225.82,-9.371 c 10.08,18.121 22.19,31.481 36.25,40.153 14.06,8.636 30.63,12.968 49.69,12.968 25.62,0 45.35,-9.019 59.22,-27.031 13.94,-17.929 20.93,-43.398 20.93,-76.398 l 0,-148.602 -40.62,0 0,147.192 c 0,23.629 -4.22,41.129 -12.66,52.5 -8.36,11.437 -21.05,17.187 -38.12,17.187 -20.94,0 -37.5,-7 -49.69,-20.937 -12.19,-13.871 -18.28,-32.813 -18.28,-56.879 l 0,-139.063 -40.63,0 0,147.192 c 0,23.75 -4.17,41.289 -12.5,52.66 -8.35,11.32 -21.24,17.027 -38.74,17.027 -20.63,0 -37.04,-7.027 -49.22,-21.098 -12.11,-13.98 -18.13,-32.89 -18.13,-56.718 l 0,-139.063 -40.62,0 0,246.102 40.62,0 0,-38.289 c 9.14,15.078 20.2,26.25 33.13,33.437 12.89,7.192 28.2,10.781 45.93,10.781 17.89,0 33.13,-4.531 45.63,-13.589 12.5,-9.063 21.76,-22.27 27.81,-39.532 z"
             style="fill:#132c4d;fill-opacity:1;fill-rule:nonzero;stroke:none"
             id="path22"
             inkscape:connector-curvature="0" /><path
             d="m 152.191,401.141 c -32.312,0 -57.9293,-12.032 -76.8824,-36.09 -18.9805,-23.992 -28.4297,-56.68 -28.4297,-98.129 0,-41.371 9.4492,-74.063 28.4297,-98.121 18.9531,-23.992 44.5704,-35.942 76.8824,-35.942 32.188,0 57.688,11.95 76.559,35.942 18.828,24.058 28.281,56.75 28.281,98.121 0,41.449 -9.453,74.137 -28.281,98.129 -18.871,24.058 -44.371,36.09 -76.559,36.09 z m 0,36.089 c 45.93,0 82.649,-15.468 110.149,-46.402 27.582,-30.859 41.41,-72.148 41.41,-123.906 0,-51.801 -13.828,-93.094 -41.41,-123.91 C 234.84,112.16 198.121,96.7617 152.191,96.7617 106.02,96.7617 69.1406,112.121 41.5586,142.859 13.9492,173.68 0.160156,215.051 0.160156,266.922 c 0,51.758 13.789044,93.047 41.398444,123.906 27.582,30.934 64.4614,46.402 110.6324,46.402 z m 256.829,-297.179 0,-130.47287 -40.622,0 0,339.68387 40.622,0 0,-37.34 c 8.441,14.687 19.101,25.547 32.031,32.656 13.008,7.07 28.519,10.621 46.57,10.621 29.879,0 54.141,-11.871 72.809,-35.621 18.75,-23.75 28.121,-54.957 28.121,-93.598 0,-38.671 -9.371,-69.839 -28.121,-93.589 -18.668,-23.75 -42.93,-35.6293 -72.809,-35.6293 -18.051,0 -33.562,3.5583 -46.57,10.6293 -12.93,7.187 -23.59,18.05 -32.031,32.66 z m 137.5,85.929 c 0,29.77 -6.168,53.129 -18.43,70 -12.192,16.879 -28.988,25.321 -50.32,25.321 -21.36,0 -38.2,-8.442 -50.469,-25.321 -12.18,-16.871 -18.281,-40.23 -18.281,-70 0,-29.679 6.101,-53.039 18.281,-70 12.269,-16.871 29.109,-25.308 50.469,-25.308 21.332,0 38.128,8.437 50.32,25.308 12.262,16.961 18.43,40.321 18.43,70 z m 318.281,10.321 0,-19.692 -185.93,0 c 1.75,-27.929 10.149,-49.179 25.149,-63.75 15,-14.488 35.859,-21.718 62.66,-21.718 15.511,0 30.55,1.871 45.16,5.621 14.57,3.828 29.058,9.566 43.43,17.187 l 0,-38.277 c -14.489,-6.172 -29.372,-10.863 -44.68,-14.063 -15.238,-3.1988 -30.629,-4.8473 -46.25,-4.8473 -39.301,0 -70.391,11.4103 -93.289,34.2183 -22.93,22.891 -34.371,53.829 -34.371,92.821 0,40.308 10.859,72.258 32.66,95.929 21.75,23.641 51.09,35.469 87.961,35.469 33.129,0 59.301,-10.699 78.597,-32.027 19.262,-21.25 28.903,-50.231 28.903,-86.871 z m -40.461,11.871 c -0.32,22.066 -6.531,39.726 -18.602,52.969 -12.109,13.199 -28.078,19.839 -47.968,19.839 -22.61,0 -40.7,-6.402 -54.219,-19.218 -13.551,-12.731 -21.36,-30.621 -23.43,-53.75 l 144.219,0.16 z m 310.15,3.59 0,-148.59 -40.47,0 0,147.187 c 0,23.321 -4.53,40.782 -13.59,52.34 -9.06,11.563 -22.73,17.352 -40.94,17.352 -21.79,0 -38.98,-7 -51.56,-20.942 -12.621,-13.871 -18.91,-32.808 -18.91,-56.879 l 0,-139.058 -40.622,0 0,246.09 40.622,0 0,-38.282 c 9.691,14.77 21.019,25.821 34.07,33.129 13.12,7.379 28.28,11.09 45.46,11.09 28.21,0 49.57,-8.75 64.07,-26.25 14.57,-17.5 21.87,-43.238 21.87,-77.187 z"
             style="fill:#6f9fdb;fill-opacity:1;fill-rule:nonzero;stroke:none"
             id="path24"
             inkscape:connector-curvature="0" /><path
             d="m 1168.59,430.828 277.5,0 0,-37.5 -116.56,0 0,-290.629 -44.53,0 0,290.629 -116.41,0 0,37.5 z m 303.48,-82.027 40.47,0 0,-246.102 -40.47,0 0,246.102 z m 0,95.777 40.47,0 0,-51.25 -40.47,0 0,51.25 z m 286.29,-133.129 0,133.129 40.47,0 0,-341.879 -40.47,0 0,36.879 c -8.56,-14.609 -19.34,-25.469 -32.34,-32.656 -12.93,-7.0704 -28.44,-10.6212 -46.57,-10.6212 -29.68,0 -53.9,11.8712 -72.65,35.6212 -18.68,23.75 -27.97,54.918 -27.97,93.59 0,38.636 9.29,69.847 27.97,93.597 18.75,23.75 42.97,35.621 72.65,35.621 18.13,0 33.64,-3.55 46.57,-10.621 13,-7.109 23.78,-17.968 32.34,-32.66 z m -137.81,-85.937 c 0,-29.684 6.09,-53.043 18.28,-70 12.26,-16.871 29.1,-25.313 50.47,-25.313 21.44,0 38.32,8.442 50.62,25.313 12.27,16.957 18.44,40.316 18.44,70 0,29.769 -6.17,53.129 -18.44,70 -12.3,16.879 -29.18,25.316 -50.62,25.316 -21.37,0 -38.21,-8.437 -50.47,-25.316 -12.19,-16.871 -18.28,-40.231 -18.28,-70 z m 372.03,0.937 c -32.62,0 -55.24,-3.75 -67.81,-11.25 -12.62,-7.5 -18.91,-20.269 -18.91,-38.277 0,-14.301 4.69,-25.621 14.06,-34.063 9.46,-8.437 22.35,-12.66 38.6,-12.66 22.38,0 40.35,7.891 53.9,23.75 13.63,15.942 20.47,37.071 20.47,63.442 l 0,9.058 -40.31,0 z m 80.62,16.723 0,-140.473 -40.31,0 0,37.352 c -9.3,-14.93 -20.78,-25.942 -34.53,-33.129 -13.75,-7.0704 -30.63,-10.6212 -50.63,-10.6212 -25.23,0 -45.27,7.0702 -60.15,21.2502 -14.81,14.14 -22.19,33.039 -22.19,56.711 0,27.699 9.26,48.597 27.81,62.66 18.52,14.058 46.18,21.09 82.97,21.09 l 56.72,0 0,4.066 c 0,18.512 -6.17,32.891 -18.44,43.121 -12.18,10.199 -29.37,15.313 -51.56,15.313 -14.06,0 -27.77,-1.711 -41.09,-5.153 -13.36,-3.359 -26.18,-8.398 -38.44,-15.16 l 0,37.352 c 14.76,5.699 29.14,10 43.12,12.808 13.95,2.891 27.5,4.371 40.63,4.371 35.62,0 62.19,-9.218 79.69,-27.652 17.58,-18.437 26.4,-46.406 26.4,-83.906 z m 82.23,201.406 40.47,0 0,-341.879 -40.47,0 0,341.879 z"
             style="fill:#3579cd;fill-opacity:1;fill-rule:nonzero;stroke:none"
             id="path26"
             inkscape:connector-curvature="0" /></g></g></g></g></svg>